<?xml version="1.0" encoding="UTF-8"?>
<svg version="1.1" xmlns="http://www.w3.org/2000/svg" width="500" height="500">
<path d="M0 0 C1.74822692 -0.00457566 3.49645206 -0.00988527 5.24467468 -0.0158844 C8.87941883 -0.02474364 12.51394236 -0.02247166 16.14868164 -0.01245117 C20.78289742 -0.00091286 25.41635664 -0.02128365 30.05047321 -0.05036831 C33.64951824 -0.06878658 37.24838325 -0.06842766 40.84746361 -0.06273079 C42.55572771 -0.06257857 44.26400478 -0.06853961 45.97222328 -0.08102226 C57.95241865 -0.15632912 67.88134517 0.87313385 77.56640625 8.59765625 C84.05788565 15.1448565 87.64889067 23.75271052 87.7890625 32.91015625 C87.65639565 40.77760874 85.60028513 47.47218075 82.94921875 54.80859375 C82.45441587 56.22951715 81.96148449 57.65109334 81.47021484 59.07324219 C80.09895744 63.02212857 78.69917646 66.96033358 77.29217529 70.89660645 C75.72110339 75.29857307 74.16684431 79.70648786 72.609375 84.11328125 C70.53038921 89.99029462 68.44764604 95.86593328 66.35620117 101.73852539 C60.37901211 118.53606609 54.55132874 135.38327482 48.76171875 152.24609375 C46.96897227 157.46622218 45.17595843 162.68625878 43.3828125 167.90625 C43.16582891 168.53798252 42.94884533 169.16971504 42.72528648 169.82059097 C36.68673639 187.39943295 30.56472713 204.94878144 24.41802979 222.49005127 C23.30475818 225.66752358 22.19214101 228.84522459 21.07958984 232.02294922 C12.07327372 257.74423396 3.03816372 283.454896 -6.0770874 309.13778687 C-12.13812832 326.2193096 -18.13348367 343.32351008 -24.11328125 360.43359375 C-31.30948464 381.02354895 -38.52970898 401.60468025 -45.83911133 422.15478516 C-46.51257353 424.04848803 -47.18599563 425.94220517 -47.859375 427.8359375 C-48.18172623 428.74232971 -48.50407745 429.64872192 -48.8361969 430.58258057 C-50.88647237 436.35758064 -52.90215325 442.14364491 -54.8984375 447.9375 C-55.63779524 450.06996197 -56.3780883 452.20209624 -57.11883545 454.33407593 C-57.76782903 456.21318332 -58.40498802 458.09636574 -59.04150391 459.97973633 C-64.16458585 474.70408156 -71.62387992 486.04416179 -85.29296875 493.92578125 C-93.09577071 497.46917132 -100.30967616 498.88076308 -108.84545898 498.83764648 C-109.81436066 498.84450974 -110.78326233 498.85137299 -111.78152466 498.85844421 C-114.9534613 498.87660035 -118.12489804 498.87289079 -121.296875 498.8671875 C-123.52067727 498.87175452 -125.74447814 498.87706164 -127.96827698 498.8830719 C-132.61733757 498.89198097 -137.26622618 498.88960479 -141.9152832 498.87963867 C-147.85096765 498.86814959 -153.78605713 498.88837139 -159.72166348 498.91755581 C-164.31069156 498.93596654 -168.89957833 498.93561565 -173.48863411 498.92991829 C-175.67613624 498.92976568 -177.86364833 498.93575929 -180.05111504 498.94820976 C-206.90925527 499.07956621 -206.90925527 499.07956621 -217.671875 488.625 C-223.58887793 481.946049 -226.44248905 474.38511453 -226.61328125 465.43359375 C-225.67099835 457.40711583 -223.7237018 450.02687452 -220.96484375 442.453125 C-220.60063324 441.42736862 -220.23642273 440.40161224 -219.86117554 439.34477234 C-218.66261925 435.97523161 -217.45035062 432.61079453 -216.23828125 429.24609375 C-215.38301164 426.84804933 -214.52886755 424.44960323 -213.67578125 422.05078125 C-212.34299104 418.30443216 -211.00967439 414.55828365 -209.67144775 410.81387329 C-205.34958033 398.72022716 -201.09765803 386.60239212 -196.85513306 374.48071289 C-194.76827429 368.51998823 -192.67705981 362.56079251 -190.5859375 356.6015625 C-190.17266708 355.42367157 -189.75939667 354.24578064 -189.33360291 353.03219604 C-184.91296019 340.43437839 -180.48288817 327.83988194 -176.05078125 315.24609375 C-175.66034637 314.13666412 -175.2699115 313.0272345 -174.86764526 311.88418579 C-171.72426702 302.95253895 -168.58022765 294.02112488 -165.43615723 285.08972168 C-162.682386 277.2669557 -159.92888301 269.44409537 -157.17578125 261.62109375 C-156.78542694 260.51190582 -156.39507263 259.4027179 -155.9928894 258.25991821 C-149.43500568 239.62431 -142.89177824 220.98358117 -136.353302 202.34115601 C-129.50839434 182.82558031 -122.65015843 163.31473072 -115.77978516 143.80810547 C-111.83082292 132.59362913 -107.89065393 121.37615035 -103.967659 110.152565 C-103.29397372 108.22553091 -102.61992869 106.29862307 -101.94573975 104.37176514 C-101.61381685 103.42311647 -101.61381685 103.42311647 -101.27518845 102.45530319 C-100.83087342 101.18548323 -100.3865401 99.91566966 -99.94218826 98.64586258 C-98.87717601 95.60183819 -97.81350656 92.55735443 -96.75170898 89.51220703 C-92.51359681 77.35784838 -88.22150034 65.22659571 -83.73828125 53.16015625 C-83.37342621 52.17028717 -83.00857117 51.18041809 -82.63265991 50.16055298 C-75.3632578 30.76879413 -60.70676059 15.16227788 -41.80078125 6.55859375 C-28.34932371 0.5897798 -14.46908057 -0.03366776 0 0 Z " fill="#FE914C" transform="translate(229.61328125,0.56640625)"/>
<path d="M0 0 C0.72058594 -0.01289062 1.44117188 -0.02578125 2.18359375 -0.0390625 C5.77723132 0.96408756 8.17137488 2.84036453 10.5625 5.625 C12.38646243 9.18014762 13.60563774 12.89435484 14.85546875 16.68359375 C15.43062225 18.34906754 15.43062225 18.34906754 16.01739502 20.04818726 C17.06081736 23.07971255 18.08740842 26.11632793 19.10731125 29.15582657 C20.19451079 32.38123618 21.30411454 35.59891032 22.41235352 38.81713867 C24.01621848 43.47957376 25.61431719 48.1438995 27.20471859 52.81094456 C31.00373093 63.95568772 34.91591863 75.0597363 38.84176636 86.16036987 C40.80239973 91.70782634 42.75483182 97.25816474 44.70703125 102.80859375 C45.09991837 103.92543045 45.49280548 105.04226715 45.89759827 106.19294739 C48.88152688 114.67908483 51.85504566 123.16884723 54.82421875 131.66015625 C55.04481083 132.29099499 55.26540291 132.92183372 55.4926796 133.57178879 C57.28185891 138.68859044 59.07073746 143.80549726 60.85955811 148.92242432 C67.20238501 167.06529625 73.58617695 185.19301941 80.01815796 203.30447388 C86.71345777 222.16393636 93.31322185 241.0563521 99.89996338 259.95391846 C104.88525725 274.25667193 109.88072054 288.55551592 114.9296875 302.8359375 C115.35224319 304.03117538 115.77479889 305.22641327 116.2101593 306.45787048 C118.20129452 312.08738655 120.19544546 317.71581718 122.19311523 323.34301758 C122.89568609 325.32632914 123.59824233 327.30964588 124.30078125 329.29296875 C124.6194516 330.18772919 124.93812195 331.08248962 125.26644897 332.00436401 C125.55661896 332.8242984 125.84678894 333.64423279 126.14575195 334.48901367 C126.3969429 335.19611984 126.64813385 335.90322601 126.90693665 336.63175964 C129.86127692 345.61443114 129.92063272 355.67310403 125.89453125 364.30859375 C120.74435893 373.26475851 114.95439802 378.77910931 105.07880592 381.98744392 C100.87567366 383.05239095 96.77562912 383.05080419 92.4597168 383.02905273 C91.00899277 383.03934761 91.00899277 383.03934761 89.52896118 383.04985046 C86.35639436 383.06803524 83.18432612 383.06429209 80.01171875 383.05859375 C77.78888287 383.06316017 75.56604839 383.06846711 73.34321594 383.07447815 C68.69237521 383.08339345 64.04170633 383.08100481 59.39086914 383.07104492 C53.45637502 383.05956916 47.52247717 383.07975402 41.58806133 383.10896206 C36.99899073 383.12738752 32.41006126 383.12701875 27.82096291 383.12132454 C25.63428729 383.12117204 23.44760166 383.12715691 21.26096153 383.13961601 C3.57917482 383.22616552 -11.35976009 381.51452777 -24.75 368.75 C-30.89787919 362.58878485 -34.26598336 355.18869052 -37.046875 347.06640625 C-37.53315117 345.68453629 -37.53315117 345.68453629 -38.0292511 344.27474976 C-39.09137596 341.24885481 -40.13952094 338.21832011 -41.1875 335.1875 C-41.93205423 333.0570908 -42.67742989 330.92696853 -43.42358398 328.79711914 C-45.37861607 323.20806784 -47.32129528 317.61480789 -49.26019287 312.0201416 C-50.80640779 307.56113641 -52.35796686 303.10399883 -53.90939331 298.64680481 C-57.45189992 288.46791155 -60.99192222 278.28810528 -64.50094604 268.09761047 C-66.18564599 263.21093572 -67.89456963 258.33453414 -69.64013672 253.46923828 C-70.00288193 252.44987686 -70.36562714 251.43051544 -70.73936462 250.38026428 C-71.42641123 248.45170399 -72.11986085 246.52540623 -72.82130432 244.60203552 C-76.23667765 234.97376044 -77.78905938 225.57731108 -77.75 215.375 C-77.76611328 214.54871094 -77.78222656 213.72242188 -77.79882812 212.87109375 C-77.81012033 197.98797197 -72.9005293 184.36969784 -67.9375 170.5625 C-67.27551784 168.69656644 -66.61457798 166.83026283 -65.95458984 164.96362305 C-64.53672474 160.95741469 -63.1134579 156.95318196 -61.68652344 152.95019531 C-59.3792009 146.47069339 -57.09734626 139.98238592 -54.8203125 133.4921875 C-45.41378924 106.68681832 -35.97048914 79.8942349 -26.44921875 53.12939453 C-24.4201607 47.41757154 -22.41413395 41.69824646 -20.42597961 35.97206116 C-19.15530353 32.31785076 -17.8737183 28.66752264 -16.59024048 25.01779175 C-15.99618889 23.31982157 -15.40715878 21.62008484 -14.82357788 19.91848755 C-14.02560939 17.59321197 -13.21023042 15.27475223 -12.390625 12.95703125 C-12.16423843 12.28234802 -11.93785187 11.60766479 -11.7046051 10.91253662 C-9.69487186 5.32618379 -6.50650882 -0.11598055 0 0 Z " fill="#FE914D" transform="translate(363.4375,116.375)"/>
<path d="M0 0 C0.33 0.66 0.66 1.32 1 2 C-3.50757002 14.3860185 -11.40443189 23.05288858 -22.71484375 29.52734375 C-30.56785459 33.04765895 -37.76840113 34.44496451 -46.34326172 34.37231445 C-47.32340744 34.37596512 -48.30355316 34.37961578 -49.31340027 34.38337708 C-52.51901137 34.39141422 -55.72410625 34.37793542 -58.9296875 34.36328125 C-61.17025756 34.36276207 -63.41082809 34.363282 -65.65139771 34.36479187 C-70.32984278 34.36470247 -75.00811437 34.35433406 -79.68652344 34.33618164 C-85.68552294 34.31341678 -91.68427104 34.31296808 -97.68330193 34.31969929 C-102.30205525 34.32303723 -106.92075112 34.31641375 -111.53949356 34.30657005 C-113.75230738 34.30272068 -115.96512759 34.30156875 -118.17794418 34.3031559 C-121.26312255 34.30352615 -124.34797588 34.29091993 -127.43310547 34.2746582 C-128.80460503 34.27837433 -128.80460503 34.27837433 -130.20381165 34.28216553 C-131.46512657 34.27153831 -131.46512657 34.27153831 -132.75192261 34.26069641 C-133.84412267 34.25761711 -133.84412267 34.25761711 -134.95838737 34.25447559 C-137.31262548 33.96103298 -138.94834226 33.16358295 -141 32 C-139.07012993 31.99120064 -139.07012993 31.99120064 -137.10127258 31.98222351 C-124.93494924 31.92483653 -112.76880189 31.85199203 -100.60265827 31.76428509 C-94.34896971 31.71969106 -88.09534466 31.68041092 -81.84155273 31.65356445 C-75.79840715 31.62742192 -69.7555074 31.58694259 -63.71251488 31.53681374 C-61.41506207 31.52021884 -59.11756681 31.5086589 -56.82006264 31.50238609 C-39.68789532 31.52167419 -39.68789532 31.52167419 -23 28 C-23 27.34 -23 26.68 -23 26 C-22.34 25.34 -21.68 24.68 -21 24 C-19.68 24 -18.36 24 -17 24 C-17 23.34 -17 22.68 -17 22 C-15.68 21.67 -14.36 21.34 -13 21 C-12.7834375 20.071875 -12.7834375 20.071875 -12.5625 19.125 C-12 17 -12 17 -11 15 C-10.01 15 -9.02 15 -8 15 C-7.8453125 14.0409375 -7.8453125 14.0409375 -7.6875 13.0625 C-7.3471875 12.0415625 -7.3471875 12.0415625 -7 11 C-6.01 10.67 -5.02 10.34 -4 10 C-3.8453125 8.3603125 -3.8453125 8.3603125 -3.6875 6.6875 C-3.02692273 3.14440371 -2.7972908 2.06756277 0 0 Z " fill="#F0A677" transform="translate(167,465)"/>
<path d="M0 0 C1.74393936 -0.00270557 3.48787723 -0.00659674 5.23181152 -0.01159668 C8.84870063 -0.01742933 12.46518938 -0.00912531 16.08203125 0.00976562 C20.69265373 0.03268979 25.3023513 0.01930814 29.91294098 -0.00452423 C33.49913406 -0.01903572 37.08511053 -0.01435417 40.67131042 -0.00401306 C42.37119155 -0.00136764 44.07109309 -0.00453752 45.77095032 -0.01393127 C54.8334545 -0.05309021 62.92361479 0.04697658 71.09375 4.53125 C67.67302128 5.66582703 67.11665574 5.54027658 63.49243164 4.11206055 C55.9170637 1.40622133 47.65190108 2.16467034 39.71484375 2.23828125 C37.93409077 2.24388453 36.15333313 2.24815117 34.37257385 2.25114441 C29.71185275 2.26253557 25.05141726 2.29195271 20.39080811 2.32525635 C15.62451032 2.35608148 10.85816586 2.36967621 6.09179688 2.38476562 C-3.24101011 2.4168285 -12.5736062 2.46795465 -21.90625 2.53125 C-21.90625 3.52125 -21.90625 4.51125 -21.90625 5.53125 C-22.63070312 5.51964844 -23.35515625 5.50804687 -24.1015625 5.49609375 C-29.15408323 5.44893689 -33.94003767 5.45747436 -38.90625 6.53125 C-30.71993499 -1.65506501 -10.81951342 -0.06045901 0 0 Z " fill="#F0B48F" transform="translate(229.90625,0.46875)"/>
<path d="M0 0 C0.94314127 3.41610225 1.08065117 6.45134864 1 10 C0.01 10.495 0.01 10.495 -1 11 C-1.7455819 13.22509597 -2.39768949 15.48192449 -3 17.75 C-4.46621736 23.22540546 -6.23676895 28.25092885 -8.5 33.4375 C-10.03310562 36.89229981 -10.03310562 36.89229981 -10.9375 40.1875 C-12.11282292 43.29864892 -13.50952525 44.84158855 -16 47 C-13.19703168 37.1440753 -9.72987525 27.53011995 -6.3125 17.875 C-5.69965627 16.13809616 -5.08702426 14.40111759 -4.47460938 12.6640625 C-2.98551388 8.44184244 -1.49355221 4.22064551 0 0 Z " fill="#F3B78D" transform="translate(130,99)"/>
<path d="M0 0 C0.495 0.99 0.495 0.99 1 2 C-3.52133978 14.42385541 -11.52625266 23.38289408 -23.046875 29.66015625 C-27.03102527 31.46777998 -30.68105951 32.35215893 -35 33 C-35.33 32.34 -35.66 31.68 -36 31 C-31.71 30.01 -27.42 29.02 -23 28 C-23 27.34 -23 26.68 -23 26 C-22.34 25.34 -21.68 24.68 -21 24 C-19.68 24 -18.36 24 -17 24 C-17 23.34 -17 22.68 -17 22 C-15.68 21.67 -14.36 21.34 -13 21 C-12.7834375 20.071875 -12.7834375 20.071875 -12.5625 19.125 C-12 17 -12 17 -11 15 C-10.01 15 -9.02 15 -8 15 C-7.896875 14.360625 -7.79375 13.72125 -7.6875 13.0625 C-7.3471875 12.0415625 -7.3471875 12.0415625 -7 11 C-6.01 10.67 -5.02 10.34 -4 10 C-3.896875 8.906875 -3.79375 7.81375 -3.6875 6.6875 C-3.02692273 3.14440371 -2.7972908 2.06756277 0 0 Z " fill="#F4B286" transform="translate(167,465)"/>
<path d="M0 0 C0.33 0 0.66 0 1 0 C1.1953125 6.0546875 1.1953125 6.0546875 1 8 C0.34 8.66 -0.32 9.32 -1 10 C-0.79375 10.7425 -0.5875 11.485 -0.375 12.25 C0.16584554 16.21620062 -1.74316218 17.81387602 -4 21 C-4.78215588 23.7282504 -4.78215588 23.7282504 -5 26 C-5.66 26 -6.32 26 -7 26 C-6.47594437 32.69007182 -5.89536075 39.3487487 -5 46 C-8.65395629 42.34604371 -8.59578926 36.97940768 -9 32 C-8.70296269 20.96271907 -3.79669547 10.22770882 0 0 Z " fill="#F3B082" transform="translate(12,434)"/>
<path d="M0 0 C0.99 0 1.98 0 3 0 C2.26170842 4.48712965 0.80624392 8.66034035 -0.72265625 12.92578125 C-0.98759384 13.67337204 -1.25253143 14.42096283 -1.52549744 15.19120789 C-2.36796486 17.566123 -3.21515902 19.9393199 -4.0625 22.3125 C-4.63638106 23.92762307 -5.20995219 25.5428563 -5.78320312 27.15820312 C-7.18521618 31.10675345 -8.5914693 35.0537702 -10 39 C-10.33 39 -10.66 39 -11 39 C-10.67 35.37 -10.34 31.74 -10 28 C-9.34 28 -8.68 28 -8 28 C-7.855625 27.278125 -7.71125 26.55625 -7.5625 25.8125 C-7.04166667 23.20833333 -6.52083333 20.60416667 -6 18 C-5.34 18 -4.68 18 -4 18 C-4.061875 16.700625 -4.061875 16.700625 -4.125 15.375 C-3.99542279 11.87641532 -3.23980344 9.25448403 -2 6 C-1.34 6 -0.68 6 0 6 C0 4.02 0 2.04 0 0 Z " fill="#F3B185" transform="translate(179,425)"/>
<path d="M0 0 C1.18719263 4.36503148 0.67009018 7.53273214 0 12 C-0.66 12 -1.32 12 -2 12 C-1.938125 13.051875 -1.938125 13.051875 -1.875 14.125 C-2.01852708 17.42612291 -2.86254503 19.9035948 -4 23 C-4.268125 24.010625 -4.53625 25.02125 -4.8125 26.0625 C-6.23669292 29.58550353 -8.19173179 31.48733897 -11 34 C-8.97359864 26.12667751 -6.52967236 18.47266584 -3.8125 10.8125 C-3.44447266 9.76513672 -3.07644531 8.71777344 -2.69726562 7.63867188 C-1.80158738 5.09122337 -0.90246184 2.54505148 0 0 Z " fill="#F5AC7C" transform="translate(305,260)"/>
<path d="M0 0 C1.42426973 4.27280918 -0.26544961 7.3268897 -1.74609375 11.38671875 C-2.03605728 12.20372757 -2.32602081 13.02073639 -2.62477112 13.86250305 C-3.55382094 16.47397027 -4.49547806 19.08068757 -5.4375 21.6875 C-6.06919428 23.45608222 -6.70006413 25.22495914 -7.33007812 26.99414062 C-8.87716934 31.3329059 -10.43558326 35.66745317 -12 40 C-12.33 40 -12.66 40 -13 40 C-13.55208165 34.75522436 -11.97115667 31.12555023 -9.95703125 26.4140625 C-8.85597556 23.63670569 -8.31238724 20.96767873 -8 18 C-7.34 18 -6.68 18 -6 18 C-6 16.02 -6 14.04 -6 12 C-5.34 12 -4.68 12 -4 12 C-4 10.68 -4 9.36 -4 8 C-3.34 8 -2.68 8 -2 8 C-2 5.69 -2 3.38 -2 1 C-1.34 0.67 -0.68 0.34 0 0 Z " fill="#F2B389" transform="translate(299,88)"/>
<path d="M0 0 C3.17213764 4.75820647 4.75079505 10.14188275 6.6875 15.5 C7.11611328 16.65371094 7.54472656 17.80742187 7.98632812 18.99609375 C8.38658203 20.10082031 8.78683594 21.20554688 9.19921875 22.34375 C9.75355591 23.86258789 9.75355591 23.86258789 10.3190918 25.41210938 C11 28 11 28 10 31 C9.67 29.68 9.34 28.36 9 27 C8.34 27 7.68 27 7 27 C3.32207968 18.03577219 0.04172661 9.84747892 0 0 Z " fill="#F5B387" transform="translate(412,233)"/>
<path d="M0 0 C4.2030553 6.30458294 3.58583324 13.64541786 3 21 C1.66142116 26.14888989 -0.00591186 30.39502074 -4 34 C-3.505 31.03 -3.505 31.03 -3 28 C-2.34 28 -1.68 28 -1 28 C-0.65267989 25.66799357 -0.31968968 23.33586591 0 21 C0.10699219 20.23171875 0.21398437 19.4634375 0.32421875 18.671875 C0.42347656 17.89328125 0.52273438 17.1146875 0.625 16.3125 C0.72039062 15.58675781 0.81578125 14.86101562 0.9140625 14.11328125 C1.00594382 11.85383609 0.57478153 10.17565454 0 8 C-0.12205329 5.32459184 -0.04467313 2.68038762 0 0 Z " fill="#F5B58A" transform="translate(489,452)"/>
<path d="M0 0 C1.30791974 4.7359352 0.45711769 8.35069964 -1 13 C-1.515625 13.804375 -2.03125 14.60875 -2.5625 15.4375 C-4.7751066 19.38171177 -4.74907517 23.54392109 -5 28 C-6.32 28.33 -7.64 28.66 -9 29 C-9.33 30.32 -9.66 31.64 -10 33 C-11 31 -11 31 -10.10375977 27.92724609 C-9.64075779 26.62318719 -9.16937737 25.32208451 -8.69140625 24.0234375 C-8.32304909 22.99556625 -8.32304909 22.99556625 -7.94725037 21.94692993 C-7.15940587 19.75366309 -6.36109792 17.56437144 -5.5625 15.375 C-5.02730258 13.89087444 -4.49278847 12.40650228 -3.95898438 10.921875 C-2.64724168 7.27833866 -1.32610101 3.63833378 0 0 Z " fill="#F5B98F" transform="translate(354,122)"/>
<path d="M0 0 C0.33 0 0.66 0 1 0 C0.63492256 6.84834924 -0.10679574 12.75676975 -3 19 C-3.33515625 19.73734375 -3.6703125 20.4746875 -4.015625 21.234375 C-6.67906977 26.83953488 -6.67906977 26.83953488 -9 28 C-6.64500307 18.43540722 -3.35051831 9.24916544 0 0 Z " fill="#F5B185" transform="translate(43,346)"/>
<path d="M0 0 C4.89824151 2.72124528 6.24522223 4.99308645 7.875 10.3125 C8.27060504 11.86991064 8.65271131 13.43110809 9 15 C4.07692308 10.69230769 4.07692308 10.69230769 3.6875 7.1875 C3.790625 6.465625 3.89375 5.74375 4 5 C0.65060119 2.97441119 -1.86962551 2.78261013 -5.75 2.875 C-6.73484375 2.89304687 -7.7196875 2.91109375 -8.734375 2.9296875 C-9.48203125 2.95289062 -10.2296875 2.97609375 -11 3 C-11 3.66 -11 4.32 -11 5 C-11.66 5 -12.32 5 -13 5 C-10.94114414 -1.17656757 -5.58562645 -0.88797138 0 0 Z " fill="#F0AC83" transform="translate(368,117)"/>
<path d="M0 0 C0.33 0 0.66 0 1 0 C0.88529863 1.75070517 0.75780972 3.50057536 0.625 5.25 C0.55539062 6.22453125 0.48578125 7.1990625 0.4140625 8.203125 C0.01534751 10.89633189 -0.63507063 12.66963279 -2 15 C-2.66 15 -3.32 15 -4 15 C-4 17.97 -4 20.94 -4 24 C-4.66 24 -5.32 24 -6 24 C-6.66 25.32 -7.32 26.64 -8 28 C-9 26 -9 26 -8.28735352 23.38623047 C-7.90506592 22.30744629 -7.52277832 21.22866211 -7.12890625 20.1171875 C-6.51499023 18.36728516 -6.51499023 18.36728516 -5.88867188 16.58203125 C-5.45103516 15.35871094 -5.01339844 14.13539063 -4.5625 12.875 C-4.12873047 11.64394531 -3.69496094 10.41289062 -3.24804688 9.14453125 C-2.17205477 6.09391626 -1.08910366 3.04595357 0 0 Z " fill="#F4B58A" transform="translate(315,232)"/>
<path d="M0 0 C0.33 0 0.66 0 1 0 C0.67142321 6.36759167 0.26291335 11.38778904 -3 17 C-3.33 18.010625 -3.66 19.02125 -4 20.0625 C-5.00550442 23.01616923 -6.30996673 25.3881304 -8 28 C-9 26 -9 26 -8.28735352 23.38623047 C-7.90506592 22.30744629 -7.52277832 21.22866211 -7.12890625 20.1171875 C-6.51499023 18.36728516 -6.51499023 18.36728516 -5.88867188 16.58203125 C-5.45103516 15.35871094 -5.01339844 14.13539063 -4.5625 12.875 C-4.12873047 11.64394531 -3.69496094 10.41289062 -3.24804688 9.14453125 C-2.17205477 6.09391626 -1.08910366 3.04595357 0 0 Z " fill="#F5B78D" transform="translate(113,147)"/>
<path d="M0 0 C0.99 0 1.98 0 3 0 C2.3440206 5.63587931 0.43967159 10.60988342 -1.5625 15.875 C-1.89185547 16.75414062 -2.22121094 17.63328125 -2.56054688 18.5390625 C-3.36886614 20.69458053 -4.18212294 22.84809441 -5 25 C-5.33 25 -5.66 25 -6 25 C-5.61548195 18.94384067 -4.56111355 14.59338265 -1.921875 9.15234375 C-0.61154524 6.09305689 -0.28104266 3.3022513 0 0 Z " fill="#F4B58A" transform="translate(199,368)"/>
<path d="M0 0 C1.72444538 5.17333615 -0.15357615 9.72812261 -1.5625 14.8125 C-1.83191406 15.78832031 -2.10132812 16.76414063 -2.37890625 17.76953125 C-2.58386719 18.50558594 -2.78882812 19.24164063 -3 20 C-3.66 20 -4.32 20 -5 20 C-5.12375 20.639375 -5.2475 21.27875 -5.375 21.9375 C-5.58125 22.618125 -5.7875 23.29875 -6 24 C-6.66 24.33 -7.32 24.66 -8 25 C-5.85406445 16.45115106 -3.0505873 8.25949525 0 0 Z " fill="#F4B386" transform="translate(94,201)"/>
<path d="M0 0 C2.72500248 4.08750372 4.07254018 8.444168 5.6875 13.0625 C6.18733398 14.44791992 6.18733398 14.44791992 6.69726562 15.86132812 C7.00728516 16.74369141 7.31730469 17.62605469 7.63671875 18.53515625 C8.06537231 19.74764038 8.06537231 19.74764038 8.50268555 20.98461914 C9 23 9 23 8 25 C4.78071352 22.42636429 4.27749016 19.88785371 3.4375 15.9375 C2.61889783 11.4918048 2.61889783 11.4918048 0 8 C-0.26991906 5.31160615 -0.08737357 2.70858064 0 0 Z " fill="#F4B58A" transform="translate(403,207)"/>
<path d="M0 0 C0.66 0.99 1.32 1.98 2 3 C1.34 3.66 0.68 4.32 0 5 C-0.48951632 6.75716553 -0.91961 8.53123798 -1.3125 10.3125 C-2.59540836 15.35155243 -3.93334638 17.81262284 -8 21 C-5.91595628 13.65411538 -3.53131663 6.79099351 0 0 Z " fill="#F4AD7E" transform="translate(122,125)"/>
<path d="M0 0 C0.66 0.33 1.32 0.66 2 1 C0.0827282 8.50931455 -2.24049015 15.75803759 -5 23 C-5.33 23 -5.66 23 -6 23 C-5.25395417 15.09191419 -3.80620286 7.05218538 0 0 Z " fill="#F5B287" transform="translate(191,393)"/>
<path d="M0 0 C0.66 0.33 1.32 0.66 2 1 C0.63125844 7.95776959 -1.4533129 14.38603107 -4 21 C-4.33 21 -4.66 21 -5 21 C-5.49101019 15.35338286 -4.24416457 11.50195162 -1.97265625 6.33203125 C-1.09346623 4.22409374 -0.48625376 2.22653037 0 0 Z " fill="#F3B58D" transform="translate(245,239)"/>
<path d="M0 0 C2.14588166 3.21882249 3.39802343 6.45123086 4.6875 10.0625 C4.92533203 10.69994141 5.16316406 11.33738281 5.40820312 11.99414062 C6.00030023 13.64194167 6.50661705 15.31999984 7 17 C6.67 17.66 6.34 18.32 6 19 C5.34 18.67 4.68 18.34 4 18 C4 16.68 4 15.36 4 14 C3.01 14.33 2.02 14.66 1 15 C0.67 10.05 0.34 5.1 0 0 Z " fill="#F4B288" transform="translate(425,270)"/>
<path d="M0 0 C2.14588166 3.21882249 3.39802343 6.45123086 4.6875 10.0625 C4.92533203 10.69994141 5.16316406 11.33738281 5.40820312 11.99414062 C6.00030023 13.64194167 6.50661705 15.31999984 7 17 C6.67 17.66 6.34 18.32 6 19 C5.34 18.67 4.68 18.34 4 18 C4 17.01 4 16.02 4 15 C3.34 15 2.68 15 2 15 C1.66223316 13.2508503 1.32996329 11.50063855 1 9.75 C0.814375 8.77546875 0.62875 7.8009375 0.4375 6.796875 C0 4 0 4 0 0 Z " fill="#F6B489" transform="translate(383,150)"/>
<path d="M0 0 C2.71743027 2.71743027 3.50932886 5.86942046 4.6875 9.4375 C4.92533203 10.11876953 5.16316406 10.80003906 5.40820312 11.50195312 C7.12211809 16.63364573 7.12211809 16.63364573 6 20 C5.67 20 5.34 20 5 20 C4.34 17.03 3.68 14.06 3 11 C2.34 11 1.68 11 1 11 C0.67 7.37 0.34 3.74 0 0 Z " fill="#F6B589" transform="translate(440,313)"/>
<path d="M0 0 C0.66 0.33 1.32 0.66 2 1 C0.3186083 7.48707154 -1.53062327 13.7677635 -4 20 C-4.33 20 -4.66 20 -5 20 C-4.6731304 14.19524671 -4.35999486 9.8999925 -1 5 C-0.29329272 2.30745009 -0.29329272 2.30745009 0 0 Z " fill="#F4B68D" transform="translate(222,305)"/>
<path d="M0 0 C1.13732426 3.40401948 0.83989957 5.77456664 0.0625 9.25 C-0.13214844 10.14203125 -0.32679687 11.0340625 -0.52734375 11.953125 C-0.68332031 12.62859375 -0.83929688 13.3040625 -1 14 C-1.66 14 -2.32 14 -3 14 C-3 15.32 -3 16.64 -3 18 C-3.99 18.33 -4.98 18.66 -6 19 C-4.3186083 12.51292846 -2.46937673 6.2322365 0 0 Z " fill="#F4B78D" transform="translate(52,321)"/>
<path d="M0 0 C0.99 0 1.98 0 3 0 C2.54548816 1.73017508 2.08621143 3.45909877 1.625 5.1875 C1.36976563 6.15042969 1.11453125 7.11335937 0.8515625 8.10546875 C0.05233704 10.82210207 -0.9031362 13.39137175 -2 16 C-2.33 16 -2.66 16 -3 16 C-2.88487847 14.27014758 -2.75744323 12.54111249 -2.625 10.8125 C-2.55539062 9.84957031 -2.48578125 8.88664063 -2.4140625 7.89453125 C-1.99784147 4.98491062 -1.20125904 2.67109226 0 0 Z " fill="#F6B286" transform="translate(261,192)"/>
<path d="M0 0 C1.32 0.33 2.64 0.66 4 1 C-4.261959 7.70387244 -4.261959 7.70387244 -9 8 C-9 7.34 -9 6.68 -9 6 C-8.01 6 -7.02 6 -6 6 C-6.33 5.01 -6.66 4.02 -7 3 C-3.535 2.505 -3.535 2.505 0 2 C0 1.34 0 0.68 0 0 Z " fill="#F5AF82" transform="translate(479,489)"/>
<path d="M0 0 C2.14588166 3.21882249 3.39802343 6.45123086 4.6875 10.0625 C4.92533203 10.69994141 5.16316406 11.33738281 5.40820312 11.99414062 C6.00030023 13.64194167 6.50661705 15.31999984 7 17 C6.67 17.66 6.34 18.32 6 19 C1.47674344 13.11976647 0 7.40148079 0 0 Z " fill="#F3B993" transform="translate(457,361)"/>
<path d="M0 0 C1.32 0.33 2.64 0.66 4 1 C3.54857225 2.77260631 3.08859477 4.5430368 2.625 6.3125 C2.36976563 7.29863281 2.11453125 8.28476562 1.8515625 9.30078125 C1 12 1 12 -1 15 C-1.33 13.35 -1.66 11.7 -2 10 C-1.34 10 -0.68 10 0 10 C-0.185625 8.72125 -0.37125 7.4425 -0.5625 6.125 C-1.125 2.25 -1.125 2.25 0 0 Z " fill="#F6AB7A" transform="translate(203,353)"/>
<path d="M0 0 C1.13732426 3.40401948 0.83989957 5.77456664 0.0625 9.25 C-0.13214844 10.14203125 -0.32679687 11.0340625 -0.52734375 11.953125 C-0.68332031 12.62859375 -0.83929688 13.3040625 -1 14 C-1.66 14 -2.32 14 -3 14 C-3.12375 14.639375 -3.2475 15.27875 -3.375 15.9375 C-3.58125 16.618125 -3.7875 17.29875 -4 18 C-4.66 18.33 -5.32 18.66 -6 19 C-4.3186083 12.51292846 -2.46937673 6.2322365 0 0 Z " fill="#F5B88F" transform="translate(78,247)"/>
<path d="M0 0 C1.43893422 5.23884483 0.55104491 10.104323 -2.02734375 14.91796875 C-2.96180444 16.31799705 -3.97371062 17.6658238 -5 19 C-6 17 -6 17 -5.56274414 15.21240234 C-5.30614014 14.51066895 -5.04953613 13.80893555 -4.78515625 13.0859375 C-4.37426758 11.94511719 -4.37426758 11.94511719 -3.95507812 10.78125 C-3.66052734 9.9871875 -3.36597656 9.193125 -3.0625 8.375 C-2.77181641 7.57320312 -2.48113281 6.77140625 -2.18164062 5.9453125 C-1.46117475 3.96107862 -0.73144862 1.98021163 0 0 Z " fill="#F4B78E" transform="translate(326,201)"/>
<path d="M0 0 C0.99 0.33 1.98 0.66 3 1 C5.308606 6.04473164 6.43715381 11.46271835 6 17 C4.0990238 14.1485357 3.03734101 11.70289524 1.875 8.5 C1.52179688 7.5409375 1.16859375 6.581875 0.8046875 5.59375 C0 3 0 3 0 0 Z " fill="#F3B488" transform="translate(308,408)"/>
<path d="M0 0 C1.25691607 4.13884506 0.34684591 7.00590522 -1 11 C-1.26554687 11.80953125 -1.53109375 12.6190625 -1.8046875 13.453125 C-2.52642639 15.63896277 -3.25874708 17.82071641 -4 20 C-4.66 20 -5.32 20 -6 20 C-4.63125844 13.04223041 -2.5466871 6.61396893 0 0 Z " fill="#F5B78D" transform="translate(85,227)"/>
<path d="M0 0 C3 1 3 1 3.94921875 2.85546875 C5.37868052 7.37075277 6.3692425 11.19984755 6 16 C4.08614468 13.12921701 3.03567048 10.66588344 1.875 7.4375 C1.52179688 6.46683594 1.16859375 5.49617188 0.8046875 4.49609375 C0 2 0 2 0 0 Z " fill="#F3B58B" transform="translate(316,432)"/>
<path d="M0 0 C0.33 0 0.66 0 1 0 C0.74213573 6.52396607 0.17832479 10.87818251 -4 16 C-5 14 -5 14 -4.00390625 10.7421875 C-3.53110016 9.4502948 -3.05028031 8.16131362 -2.5625 6.875 C-2.31951172 6.21628906 -2.07652344 5.55757813 -1.82617188 4.87890625 C-1.22421679 3.25008662 -0.61297588 1.62470425 0 0 Z " fill="#F4B891" transform="translate(33,375)"/>
<path d="M0 0 C1.47728036 3.9394143 1.18855758 8.02502266 0 12 C-2.5625 15 -2.5625 15 -5 17 C-1.92482916 5.47835991 -1.92482916 5.47835991 0 0 Z " fill="#F5B78C" transform="translate(103,175)"/>
<path d="M0 0 C1.90747183 2.86120775 3.00353706 5.35254993 4.1875 8.5625 C4.55230469 9.53316406 4.91710937 10.50382812 5.29296875 11.50390625 C6 14 6 14 5 16 C4.67 15.01 4.34 14.02 4 13 C3.01 13 2.02 13 1 13 C0.67 8.71 0.34 4.42 0 0 Z " fill="#F4B687" transform="translate(483,435)"/>
<path d="M0 0 C2.45823172 3.68734758 3.01242616 6.69699971 4 11 C2.68 10.34 1.36 9.68 0 9 C-0.33 9.99 -0.66 10.98 -1 12 C-1.66 12 -2.32 12 -3 12 C-2.690625 11.319375 -2.38125 10.63875 -2.0625 9.9375 C-0.86629351 6.63034088 -0.40994603 3.48454122 0 0 Z " fill="#F8A976" transform="translate(475,412)"/>
<path d="M0 0 C1.90747183 2.86120775 3.00353706 5.35254993 4.1875 8.5625 C4.55230469 9.53316406 4.91710937 10.50382812 5.29296875 11.50390625 C6 14 6 14 5 16 C4.34 14.68 3.68 13.36 3 12 C2.34 12 1.68 12 1 12 C0.67 8.04 0.34 4.08 0 0 Z " fill="#F5B78D" transform="translate(464,381)"/>
<path d="M0 0 C0.33 0.99 0.66 1.98 1 3 C1.66 3 2.32 3 3 3 C3.33 4.65 3.66 6.3 4 8 C5.32 8.33 6.64 8.66 8 9 C8.33 10.65 8.66 12.3 9 14 C4.76320505 10.72611299 1.60412629 7.79159238 -1 3 C-0.67 2.01 -0.34 1.02 0 0 Z " fill="#F5B78E" transform="translate(332,472)"/>
<path d="M0 0 C3.16451962 0.63432938 5.51687779 1.73182928 8.25 3.4375 C8.95640625 3.86933594 9.6628125 4.30117188 10.390625 4.74609375 C10.92171875 5.15988281 11.4528125 5.57367188 12 6 C12 6.66 12 7.32 12 8 C6.80421104 6.63919813 3.86388964 4.58789752 0 1 C0 0.67 0 0.34 0 0 Z " fill="#F3B58A" transform="translate(341,486)"/>
<path d="M0 0 C1.29212918 4.21787883 0.46211546 6.83297093 -1 11 C-2.625 13.9375 -2.625 13.9375 -4 16 C-5 14 -5 14 -4.00390625 10.7421875 C-3.53110016 9.4502948 -3.05028031 8.16131362 -2.5625 6.875 C-2.31951172 6.21628906 -2.07652344 5.55757813 -1.82617188 4.87890625 C-1.22421679 3.25008662 -0.61297588 1.62470425 0 0 Z " fill="#F3BB90" transform="translate(21,409)"/>
<path d="M0 0 C0.66 0 1.32 0 2 0 C1.54857225 1.77260631 1.08859477 3.5430368 0.625 5.3125 C0.24214844 6.79169922 0.24214844 6.79169922 -0.1484375 8.30078125 C-1 11 -1 11 -3 14 C-3 11.03 -3 8.06 -3 5 C-2.34 5 -1.68 5 -1 5 C-0.67 3.35 -0.34 1.7 0 0 Z " fill="#F4B183" transform="translate(230,283)"/>
<path d="M0 0 C1.29696563 4.33947146 0.79928632 7.56759403 0 12 C-0.99 12.495 -0.99 12.495 -2 13 C-3.13350534 15.01669827 -3.13350534 15.01669827 -4 17 C-5 15 -5 15 -4.00390625 11.5234375 C-3.53099953 10.13802064 -3.05018356 8.75528453 -2.5625 7.375 C-2.31951172 6.66859375 -2.07652344 5.9621875 -1.82617188 5.234375 C-1.22412795 3.48726713 -0.61291983 1.74332214 0 0 Z " fill="#F5BB94" transform="translate(305,260)"/>
<path d="M0 0 C0.66 0 1.32 0 2 0 C1.55005243 1.79379098 1.08975857 3.58498928 0.625 5.375 C0.36976563 6.37273437 0.11453125 7.37046875 -0.1484375 8.3984375 C-1 11 -1 11 -3 13 C-2.67 9.37 -2.34 5.74 -2 2 C-1.34 2 -0.68 2 0 2 C0 1.34 0 0.68 0 0 Z " fill="#F4B48B" transform="translate(215,326)"/>
<path d="M0 0 C1.35281097 3.07457039 0.92902928 4.19516948 -0.25 7.4375 C-1.70738283 10.40431506 -3.22692646 13.21374158 -5 16 C-6 14 -6 14 -5.29296875 11.7578125 C-4.92816406 10.88898438 -4.56335938 10.02015625 -4.1875 9.125 C-3.83042969 8.26132813 -3.47335938 7.39765625 -3.10546875 6.5078125 C-2.13241023 4.3003794 -1.10249038 2.14511702 0 0 Z " fill="#F5AC7B" transform="translate(110,159)"/>
<path d="M0 0 C1.29212918 4.21787883 0.46211546 6.83297093 -1 11 C-2.625 13.9375 -2.625 13.9375 -4 16 C-5 14 -5 14 -4.00390625 10.7421875 C-3.53110016 9.4502948 -3.05028031 8.16131362 -2.5625 6.875 C-2.31951172 6.21628906 -2.07652344 5.55757813 -1.82617188 4.87890625 C-1.22421679 3.25008662 -0.61297588 1.62470425 0 0 Z " fill="#F4BB93" transform="translate(27,392)"/>
<path d="M0 0 C0.33 0 0.66 0 1 0 C1 2.64 1 5.28 1 8 C0.34 8 -0.32 8 -1 8 C-1.66 9.32 -2.32 10.64 -3 12 C-4 10 -4 10 -3.22265625 7.6171875 C-2.83980469 6.71226562 -2.45695312 5.80734375 -2.0625 4.875 C-1.68222656 3.96492187 -1.30195313 3.05484375 -0.91015625 2.1171875 C-0.60980469 1.41851562 -0.30945313 0.71984375 0 0 Z " fill="#F4AD7E" transform="translate(310,248)"/>
<path d="M0 0 C0.66 0 1.32 0 2 0 C2.33 1.98 2.66 3.96 3 6 C1.68 6.33 0.36 6.66 -1 7 C-1.33 8.32 -1.66 9.64 -2 11 C-3 9 -3 9 -2.44140625 6.8359375 C-2.15136719 6.02382812 -1.86132812 5.21171875 -1.5625 4.375 C-1.27503906 3.55773437 -0.98757813 2.74046875 -0.69140625 1.8984375 C-0.46324219 1.27195313 -0.23507812 0.64546875 0 0 Z " fill="#F5AC7C" transform="translate(346,144)"/>
<path d="M0 0 C0.33 0 0.66 0 1 0 C0.64989059 8.19256018 0.64989059 8.19256018 -2.0625 11.5625 C-2.701875 12.036875 -3.34125 12.51125 -4 13 C-3.67 11.02 -3.34 9.04 -3 7 C-2.34 7 -1.68 7 -1 7 C-0.67 4.69 -0.34 2.38 0 0 Z " fill="#F1AE81" transform="translate(489,473)"/>
<path d="M0 0 C0.33 0 0.66 0 1 0 C1 2.97 1 5.94 1 9 C-0.98 9.99 -0.98 9.99 -3 11 C-2.01 7.37 -1.02 3.74 0 0 Z " fill="#F6BA8F" transform="translate(330,189)"/>
<path d="M0 0 C1.41750563 0.11509661 2.83401169 0.24253658 4.25 0.375 C5.03890625 0.44460937 5.8278125 0.51421875 6.640625 0.5859375 C9.085877 1.01507113 10.84836903 1.78600638 13 3 C9.57056481 4.18771723 7.62215325 3.80226223 4.25 2.5625 C3.45078125 2.27503906 2.6515625 1.98757812 1.828125 1.69140625 C1.22484375 1.46324219 0.6215625 1.23507813 0 1 C0 0.67 0 0.34 0 0 Z " fill="#EFAF83" transform="translate(288,2)"/>
<path d="M0 0 C1 2 1 2 0.44140625 4.1640625 C0.15136719 4.97617187 -0.13867188 5.78828125 -0.4375 6.625 C-0.72496094 7.44226563 -1.01242188 8.25953125 -1.30859375 9.1015625 C-1.53675781 9.72804688 -1.76492187 10.35453125 -2 11 C-2.33 11 -2.66 11 -3 11 C-3.36923077 3.49230769 -3.36923077 3.49230769 -1.5 1 C-1.005 0.67 -0.51 0.34 0 0 Z " fill="#F7B790" transform="translate(235,272)"/>
<path d="M0 0 C0.33 0 0.66 0 1 0 C1 2.97 1 5.94 1 9 C-0.32 9.33 -1.64 9.66 -3 10 C-2.01 6.7 -1.02 3.4 0 0 Z " fill="#F6B58B" transform="translate(338,167)"/>
<path d="M0 0 C0.66 0 1.32 0 2 0 C2.99 3.3 3.98 6.6 5 10 C0.07692308 5.69230769 0.07692308 5.69230769 -0.3125 2.1875 C-0.209375 1.465625 -0.10625 0.74375 0 0 Z " fill="#F5B78F" transform="translate(372,122)"/>
<path d="M0 0 C1.04005702 3.38018531 1.08004482 6.4780279 1 10 C0.01 10.33 -0.98 10.66 -2 11 C-1.85892253 9.54119891 -1.71197585 8.08296449 -1.5625 6.625 C-1.48128906 5.81289062 -1.40007812 5.00078125 -1.31640625 4.1640625 C-1 2 -1 2 0 0 Z " fill="#F6B082" transform="translate(130,99)"/>
<path d="M0 0 C0.33 0 0.66 0 1 0 C1.390625 5.95703125 1.390625 5.95703125 1 8 C-0.32 8.99 -1.64 9.98 -3 11 C-2.01 7.37 -1.02 3.74 0 0 Z " fill="#F8B990" transform="translate(12,434)"/>
<path d="M0 0 C0.33 0 0.66 0 1 0 C1.125 7.75 1.125 7.75 0 10 C-0.66 10 -1.32 10 -2 10 C-1.125 2.25 -1.125 2.25 0 0 Z " fill="#F5B289" transform="translate(290,304)"/>
<path d="M0 0 C0.8125 1.625 0.8125 1.625 1 4 C-0.46818136 6.24609835 -2.15852858 8.02378677 -4 10 C-4.33 9.34 -4.66 8.68 -5 8 C-3.4960456 5.20694183 -1.75983946 2.63975919 0 0 Z " fill="#F6A572" transform="translate(299,284)"/>
<path d="M0 0 C0.99 0 1.98 0 3 0 C1.515 5.445 1.515 5.445 0 11 C-0.33 11 -0.66 11 -1 11 C-0.67 7.37 -0.34 3.74 0 0 Z " fill="#F3BC94" transform="translate(291,106)"/>
<path d="M0 0 C1.9375 0.625 1.9375 0.625 4 2 C4.75 5.125 4.75 5.125 5 8 C2.20127563 5.47211993 0.54226981 3.79588866 0 0 Z " fill="#F3B388" transform="translate(7,480)"/>
<path d="M0 0 C0.66 0 1.32 0 2 0 C4.32590854 3.63423209 4.16265833 6.77088331 4 11 C1.54176828 7.31265242 0.98757384 4.30300029 0 0 Z " fill="#F4BB95" transform="translate(298,380)"/>
<path d="M0 0 C2.45823172 3.68734758 3.01242616 6.69699971 4 11 C3.34 10.67 2.68 10.34 2 10 C2 9.34 2 8.68 2 8 C1.34 8 0.68 8 0 8 C0 5.36 0 2.72 0 0 Z " fill="#F5B78D" transform="translate(449,338)"/>
<path d="M0 0 C0.33 0 0.66 0 1 0 C1.25 3.25 1.25 3.25 1 7 C-0.32 8.32 -1.64 9.64 -3 11 C-2.01 7.37 -1.02 3.74 0 0 Z " fill="#F5B88E" transform="translate(56,309)"/>
<path d="M0 0 C2.18975773 3.28463659 2.99806563 6.20696275 4 10 C2.68 9.34 1.36 8.68 0 8 C0 5.36 0 2.72 0 0 Z " fill="#F7B88E" transform="translate(453,350)"/>
<path d="M0 0 C0.33 0 0.66 0 1 0 C1.1875 3.375 1.1875 3.375 1 7 C0.01 7.66 -0.98 8.32 -2 9 C-1.125 1.125 -1.125 1.125 0 0 Z " fill="#F69358" transform="translate(307,259)"/>
<path d="M0 0 C0.66 0 1.32 0 2 0 C1.34 2.97 0.68 5.94 0 9 C-0.33 9 -0.66 9 -1 9 C-1.09765625 2.84765625 -1.09765625 2.84765625 -1 1 C-0.67 0.67 -0.34 0.34 0 0 Z " fill="#F5B98E" transform="translate(176,436)"/>
</svg>
